# xmcd
#
# Track frame offsets:
#	150
#	15828
#	33380
#	43226
#	52710
#	62398
#	74906
#	87881
#	100227
#	116361
#	127236
#	136746
#	147354
#	158638
#	168437
#	179557
#	193797
#	211539
#
# Disc length: 2991
#
# Revision: 1
# Processed by: cddbd v1.5.1PL0 Copyright (c) Steve Scherf et al.
# Submitted via: jack 2.99.3
# Normalized: r0:DSETVAR1
#
DISCID=f50bad12
DTITLE=Various Artist - Desperado (II)
DYEAR=1900
DGENRE=
TTITLE0=Billy Jo Spears - Blanket on the Ground
TTITLE1=Skeeter Davis - Always on my Mind
TTITLE2=Johnny Cash - Ballad of the Teenage Queen
TTITLE3=Merle Travis - 16 Tons
TTITLE4=Ned Miller - From a Jack to a King
TTITLE5=Frankie Laine - High Noon
TTITLE6=Freddy Fender - Silver Wings
TTITLE7=Kenny Rogers - Ruben James
TTITLE8=Lynn Anderson - The Devil went down to Georgia
TTITLE9=Dolly Parton - It wasn't God who made Honkytonk Angels
TTITLE10=Dave Duddley - Six Days on the Road
TTITLE11=Patsy Cline - I don't wana
TTITLE12=Waylon Jennings - Sally was a good old Girl
TTITLE13=Willie Nelson - Let's Pretend
TTITLE14=Merle Kilgore - Love has made you beautiful
TTITLE15=George Jones - A good year for the roses
TTITLE16=Glen Campbell - Southern Nights
TTITLE17=Charlie Rich - Behind Closed Doors
EXTD=
EXTT0=
EXTT1=
EXTT2=
EXTT3=
EXTT4=
EXTT5=
EXTT6=
EXTT7=
EXTT8=
EXTT9=
EXTT10=
EXTT11=
EXTT12=
EXTT13=
EXTT14=
EXTT15=
EXTT16=
EXTT17=
PLAYORDER=
